<?xml version="1.0" standalone="yes"?>

<svg version="1.1" viewBox="0.0 0.0 800.0 600.0" fill="none" stroke="none" stroke-linecap="square" stroke-miterlimit="10" xmlns="http://www.w3.org/2000/svg" xmlns:xlink="http://www.w3.org/1999/xlink"><clipPath id="p.0"><path d="m0 0l800.0 0l0 600.0l-800.0 0l0 -600.0z" clip-rule="nonzero"></path></clipPath><g clip-path="url(#p.0)"><path fill="#000000" fill-opacity="0.0" d="m0 0l800.0 0l0 600.0l-800.0 0z" fill-rule="nonzero"></path><path fill="#cfe2f3" d="m65.62205 32.811024l0 0c0 -12.080685 10.315079 -21.874016 23.039368 -21.874016l0 0c6.11042 0 11.970573 2.3045769 16.291298 6.4067516c4.320717 4.102173 6.7480774 9.665915 6.7480774 15.467264l0 0c0 12.080685 -10.315079 21.874016 -23.039375 21.874016l0 0c-12.724289 0 -23.039368 -9.793331 -23.039368 -21.874016z" fill-rule="nonzero"></path><path stroke="#000000" stroke-width="1.0" stroke-linejoin="round" stroke-linecap="butt" d="m65.62205 32.811024l0 0c0 -12.080685 10.315079 -21.874016 23.039368 -21.874016l0 0c6.11042 0 11.970573 2.3045769 16.291298 6.4067516c4.320717 4.102173 6.7480774 9.665915 6.7480774 15.467264l0 0c0 12.080685 -10.315079 21.874016 -23.039375 21.874016l0 0c-12.724289 0 -23.039368 -9.793331 -23.039368 -21.874016z" fill-rule="nonzero"></path><path fill="#000000" d="m83.00346 36.271023l2.484375 -3.359375l-2.203125 -3.078123l1.015625 0l1.171875 1.640625q0.375 0.515625 0.515625 0.7968731q0.21875 -0.3437481 0.515625 -0.7343731l1.296875 -1.703125l0.921875 0l-2.265625 3.031248l2.453125 3.40625l-1.0625 0l-1.625 -2.296875q-0.125 -0.203125 -0.28125 -0.4375q-0.21875 0.359375 -0.296875 0.484375l-1.625 2.25l-1.015625 0zm9.5342865 0l-0.796875 0l0 -5.046873q-0.28125 0.28125 -0.75 0.5625q-0.46875 0.2656231 -0.828125 0.3906231l0 -0.7656231q0.65625 -0.296875 1.15625 -0.734375q0.5 -0.453125 0.703125 -0.875l0.515625 0l0 6.468748z" fill-rule="nonzero"></path><path fill="#cfe2f3" d="m19.543306 101.154854l0 0c0 -12.080681 10.315079 -21.874016 23.03937 -21.874016l0 0c6.11042 0 11.970577 2.3045807 16.291298 6.4067535c4.320717 4.102173 6.7480736 9.665916 6.7480736 15.467262l0 0c0 12.080688 -10.315079 21.874016 -23.039371 21.874016l0 0c-12.724291 0 -23.03937 -9.793327 -23.03937 -21.874016z" fill-rule="nonzero"></path><path stroke="#000000" stroke-width="1.0" stroke-linejoin="round" stroke-linecap="butt" d="m19.543306 101.154854l0 0c0 -12.080681 10.315079 -21.874016 23.03937 -21.874016l0 0c6.11042 0 11.970577 2.3045807 16.291298 6.4067535c4.320717 4.102173 6.7480736 9.665916 6.7480736 15.467262l0 0c0 12.080688 -10.315079 21.874016 -23.039371 21.874016l0 0c-12.724291 0 -23.03937 -9.793327 -23.03937 -21.874016z" fill-rule="nonzero"></path><path fill="#000000" d="m36.924725 104.61485l2.484375 -3.359375l-2.203125 -3.078125l1.015625 0l1.171875 1.640625q0.375 0.515625 0.515625 0.796875q0.21875 -0.34375 0.515625 -0.734375l1.296875 -1.703125l0.921875 0l-2.265625 3.03125l2.453125 3.40625l-1.0625 0l-1.625 -2.296875q-0.125 -0.203125 -0.28125 -0.4375q-0.21875 0.359375 -0.296875 0.484375l-1.625 2.25l-1.015625 0zm10.7061615 -0.765625l0 0.765625l-4.265625 0q0 -0.28125 0.09375 -0.546875q0.171875 -0.4375 0.53125 -0.859375q0.359375 -0.421875 1.03125 -0.96875q1.046875 -0.875 1.40625 -1.375q0.375 -0.5 0.375 -0.953125q0 -0.46875 -0.34375 -0.78125q-0.328125 -0.328125 -0.859375 -0.328125q-0.578125 0 -0.921875 0.34375q-0.34375 0.34375 -0.34375 0.953125l-0.8125 -0.09375q0.078125 -0.90625 0.625 -1.375q0.546875 -0.484375 1.46875 -0.484375q0.921875 0 1.453125 0.515625q0.546875 0.515625 0.546875 1.265625q0 0.390625 -0.15625 0.765625q-0.15625 0.375 -0.53125 0.796875q-0.359375 0.40625 -1.203125 1.125q-0.71875 0.59375 -0.921875 0.8125q-0.203125 0.21875 -0.328125 0.421875l3.15625 0z" fill-rule="nonzero"></path><path fill="#cfe2f3" d="m111.70079 101.154854l0 0c0 -12.080681 10.315071 -21.874016 23.039368 -21.874016l0 0c6.110428 0 11.970581 2.3045807 16.29129 6.4067535c4.3207245 4.102173 6.7480774 9.665916 6.7480774 15.467262l0 0c0 12.080688 -10.315079 21.874016 -23.039368 21.874016l0 0c-12.724297 0 -23.039368 -9.793327 -23.039368 -21.874016z" fill-rule="nonzero"></path><path stroke="#000000" stroke-width="1.0" stroke-linejoin="round" stroke-linecap="butt" d="m111.70079 101.154854l0 0c0 -12.080681 10.315071 -21.874016 23.039368 -21.874016l0 0c6.110428 0 11.970581 2.3045807 16.29129 6.4067535c4.3207245 4.102173 6.7480774 9.665916 6.7480774 15.467262l0 0c0 12.080688 -10.315079 21.874016 -23.039368 21.874016l0 0c-12.724297 0 -23.039368 -9.793327 -23.039368 -21.874016z" fill-rule="nonzero"></path><path fill="#000000" d="m129.0822 104.61485l2.484375 -3.359375l-2.203125 -3.078125l1.015625 0l1.171875 1.640625q0.375 0.515625 0.515625 0.796875q0.21875 -0.34375 0.515625 -0.734375l1.296875 -1.703125l0.921875 0l-2.265625 3.03125l2.453125 3.40625l-1.0625 0l-1.625 -2.296875q-0.125 -0.203125 -0.28125 -0.4375q-0.21875 0.359375 -0.296875 0.484375l-1.625 2.25l-1.015625 0zm6.5499115 -1.703125l0.796875 -0.109375q0.140625 0.671875 0.453125 0.96875q0.328125 0.296875 0.8125 0.296875q0.546875 0 0.921875 -0.375q0.390625 -0.390625 0.390625 -0.96875q0 -0.546875 -0.359375 -0.890625q-0.34375 -0.359375 -0.890625 -0.359375q-0.234375 0 -0.5625 0.09375l0.09375 -0.703125q0.078125 0.015625 0.125 0.015625q0.5 0 0.90625 -0.265625q0.40625 -0.265625 0.40625 -0.8125q0 -0.4375 -0.296875 -0.71875q-0.296875 -0.28125 -0.765625 -0.28125q-0.453125 0 -0.765625 0.296875q-0.296875 0.28125 -0.390625 0.859375l-0.796875 -0.140625q0.15625 -0.796875 0.65625 -1.234375q0.515625 -0.4375 1.28125 -0.4375q0.53125 0 0.96875 0.234375q0.453125 0.21875 0.6875 0.609375q0.234375 0.390625 0.234375 0.828125q0 0.421875 -0.234375 0.765625q-0.21875 0.34375 -0.65625 0.546875q0.578125 0.125 0.890625 0.546875q0.3125 0.40625 0.3125 1.03125q0 0.84375 -0.625 1.4375q-0.609375 0.578125 -1.546875 0.578125q-0.84375 0 -1.40625 -0.5q-0.5625 -0.5 -0.640625 -1.3125z" fill-rule="nonzero"></path><path fill="#cfe2f3" d="m26.482939 169.49869l0 0c0 -12.080688 10.315077 -21.874023 23.03937 -21.874023l0 0c6.110424 0 11.970577 2.3045807 16.291298 6.4067535c4.320717 4.102173 6.74807 9.665924 6.74807 15.46727l0 0c0 12.080688 -10.315075 21.874008 -23.039368 21.874008l0 0c-12.724293 0 -23.03937 -9.79332 -23.03937 -21.874008z" fill-rule="nonzero"></path><path stroke="#000000" stroke-width="1.0" stroke-linejoin="round" stroke-linecap="butt" d="m26.482939 169.49869l0 0c0 -12.080688 10.315077 -21.874023 23.03937 -21.874023l0 0c6.110424 0 11.970577 2.3045807 16.291298 6.4067535c4.320717 4.102173 6.74807 9.665924 6.74807 15.46727l0 0c0 12.080688 -10.315075 21.874008 -23.039368 21.874008l0 0c-12.724293 0 -23.03937 -9.79332 -23.03937 -21.874008z" fill-rule="nonzero"></path><path fill="#000000" d="m43.864357 172.9587l2.484375 -3.359375l-2.203125 -3.078125l1.015625 0l1.171875 1.640625q0.375 0.515625 0.515625 0.796875q0.21875 -0.34375 0.515625 -0.734375l1.296875 -1.703125l0.921875 0l-2.265625 3.03125l2.453125 3.40625l-1.0625 0l-1.625 -2.296875q-0.125 -0.203125 -0.28125 -0.4375q-0.21875 0.359375 -0.296875 0.484375l-1.625 2.25l-1.015625 0zm9.0811615 0l0 -1.546875l-2.796875 0l0 -0.71875l2.9375 -4.171875l0.65625 0l0 4.171875l0.875 0l0 0.71875l-0.875 0l0 1.546875l-0.796875 0zm0 -2.265625l0 -2.90625l-2.015625 2.90625l2.015625 0z" fill-rule="nonzero"></path><path fill="#cfe2f3" d="m115.6063 241.71916l0 0c0 -12.080688 10.315079 -21.874023 23.039375 -21.874023l0 0c6.1104126 0 11.970566 2.3045807 16.29129 6.4067535c4.3207245 4.102173 6.7480774 9.665924 6.7480774 15.46727l0 0c0 12.080688 -10.315079 21.874008 -23.039368 21.874008l0 0c-12.724297 0 -23.039375 -9.79332 -23.039375 -21.874008z" fill-rule="nonzero"></path><path stroke="#000000" stroke-width="1.0" stroke-linejoin="round" stroke-linecap="butt" d="m115.6063 241.71916l0 0c0 -12.080688 10.315079 -21.874023 23.039375 -21.874023l0 0c6.1104126 0 11.970566 2.3045807 16.29129 6.4067535c4.3207245 4.102173 6.7480774 9.665924 6.7480774 15.46727l0 0c0 12.080688 -10.315079 21.874008 -23.039368 21.874008l0 0c-12.724297 0 -23.039375 -9.79332 -23.039375 -21.874008z" fill-rule="nonzero"></path><path fill="#000000" d="m132.98772 245.17915l2.484375 -3.359375l-2.203125 -3.078125l1.015625 0l1.171875 1.640625q0.375 0.515625 0.515625 0.796875q0.21875 -0.34375 0.515625 -0.734375l1.296875 -1.703125l0.921875 0l-2.265625 3.03125l2.453125 3.40625l-1.0625 0l-1.625 -2.296875q-0.125 -0.203125 -0.28125 -0.4375q-0.21875 0.359375 -0.296875 0.484375l-1.625 2.25l-1.015625 0zm6.5967865 -5.59375l0 -0.765625l4.171875 0l0 0.609375q-0.609375 0.65625 -1.21875 1.75q-0.609375 1.078125 -0.9375 2.234375q-0.234375 0.796875 -0.296875 1.765625l-0.8125 0q0.015625 -0.765625 0.296875 -1.828125q0.28125 -1.078125 0.8125 -2.078125q0.546875 -1.0 1.140625 -1.6875l-3.15625 0z" fill-rule="nonzero"></path><path fill="#cfe2f3" d="m102.28084 169.49869l0 0c0 -12.080688 10.315079 -21.874023 23.039375 -21.874023l0 0c6.11042 0 11.970573 2.3045807 16.291298 6.4067535c4.320709 4.102173 6.748062 9.665924 6.748062 15.46727l0 0c0 12.080688 -10.315063 21.874008 -23.03936 21.874008l0 0c-12.724297 0 -23.039375 -9.79332 -23.039375 -21.874008z" fill-rule="nonzero"></path><path stroke="#000000" stroke-width="1.0" stroke-linejoin="round" stroke-linecap="butt" d="m102.28084 169.49869l0 0c0 -12.080688 10.315079 -21.874023 23.039375 -21.874023l0 0c6.11042 0 11.970573 2.3045807 16.291298 6.4067535c4.320709 4.102173 6.748062 9.665924 6.748062 15.46727l0 0c0 12.080688 -10.315063 21.874008 -23.03936 21.874008l0 0c-12.724297 0 -23.039375 -9.79332 -23.039375 -21.874008z" fill-rule="nonzero"></path><path fill="#000000" d="m119.66226 172.9587l2.484375 -3.359375l-2.203125 -3.078125l1.015625 0l1.171875 1.640625q0.375 0.515625 0.515625 0.796875q0.21875 -0.34375 0.515625 -0.734375l1.296875 -1.703125l0.9218674 0l-2.2656174 3.03125l2.4531174 3.40625l-1.0624924 0l-1.625 -2.296875q-0.125 -0.203125 -0.28125 -0.4375q-0.21875 0.359375 -0.296875 0.484375l-1.625 2.25l-1.015625 0zm9.0811615 0l0 -1.546875l-2.7968826 0l0 -0.71875l2.9375076 -4.171875l0.65625 0l0 4.171875l0.875 0l0 0.71875l-0.875 0l0 1.546875l-0.796875 0zm0 -2.265625l0 -2.90625l-2.0156326 2.90625l2.0156326 0z" fill-rule="nonzero"></path><path fill="#cfe2f3" d="m13.590551 241.71916l0 0c0 -12.080688 10.315077 -21.874023 23.03937 -21.874023l0 0c6.11042 0 11.970573 2.3045807 16.291294 6.4067535c4.3207207 4.102173 6.7480774 9.665924 6.7480774 15.46727l0 0c0 12.080688 -10.315079 21.874008 -23.039371 21.874008l0 0c-12.724293 0 -23.03937 -9.79332 -23.03937 -21.874008z" fill-rule="nonzero"></path><path stroke="#000000" stroke-width="1.0" stroke-linejoin="round" stroke-linecap="butt" d="m13.590551 241.71916l0 0c0 -12.080688 10.315077 -21.874023 23.03937 -21.874023l0 0c6.11042 0 11.970573 2.3045807 16.291294 6.4067535c4.3207207 4.102173 6.7480774 9.665924 6.7480774 15.46727l0 0c0 12.080688 -10.315079 21.874008 -23.039371 21.874008l0 0c-12.724293 0 -23.03937 -9.79332 -23.03937 -21.874008z" fill-rule="nonzero"></path><path fill="#000000" d="m30.97197 245.17915l2.484375 -3.359375l-2.203125 -3.078125l1.015625 0l1.171875 1.640625q0.375 0.515625 0.515625 0.796875q0.21875 -0.34375 0.515625 -0.734375l1.296875 -1.703125l0.921875 0l-2.265625 3.03125l2.453125 3.40625l-1.0625 0l-1.625 -2.296875q-0.125 -0.203125 -0.28125 -0.4375q-0.21875 0.359375 -0.296875 0.484375l-1.625 2.25l-1.015625 0zm10.6592865 -4.859375l-0.796875 0.0625q-0.09375 -0.46875 -0.296875 -0.6875q-0.3125 -0.328125 -0.78125 -0.328125q-0.390625 0 -0.671875 0.203125q-0.375 0.28125 -0.59375 0.796875q-0.203125 0.515625 -0.21875 1.484375q0.28125 -0.421875 0.6875 -0.625q0.421875 -0.21875 0.875 -0.21875q0.796875 0 1.34375 0.578125q0.5625 0.578125 0.5625 1.5q0 0.609375 -0.265625 1.140625q-0.265625 0.515625 -0.71875 0.796875q-0.453125 0.265625 -1.03125 0.265625q-0.984375 0 -1.609375 -0.71875q-0.625 -0.734375 -0.625 -2.40625q0 -1.859375 0.6875 -2.71875q0.59375 -0.734375 1.625 -0.734375q0.75 0 1.234375 0.4375q0.484375 0.421875 0.59375 1.171875zm-3.234375 2.765625q0 0.421875 0.171875 0.796875q0.171875 0.359375 0.484375 0.5625q0.3125 0.1875 0.65625 0.1875q0.5 0 0.859375 -0.390625q0.359375 -0.40625 0.359375 -1.109375q0 -0.671875 -0.359375 -1.046875q-0.34375 -0.390625 -0.890625 -0.390625q-0.53125 0 -0.90625 0.390625q-0.375 0.375 -0.375 1.0z" fill-rule="nonzero"></path><path fill="#000000" fill-opacity="0.0" d="m88.661415 54.68504l-22.83464 99.33858" fill-rule="nonzero"></path><path stroke="#000000" stroke-width="1.0" stroke-linejoin="round" stroke-linecap="butt" d="m88.661415 54.68504l-21.490501 93.49107" fill-rule="evenodd"></path><path fill="#000000" stroke="#000000" stroke-width="1.0" stroke-linecap="butt" d="m65.561165 147.80609l0.59310913 4.7927856l2.6263962 -4.0527344z" fill-rule="evenodd"></path><path fill="#000000" fill-opacity="0.0" d="m88.661415 54.68504l20.377953 99.33858" fill-rule="nonzero"></path><path stroke="#000000" stroke-width="1.0" stroke-linejoin="round" stroke-linecap="butt" d="m88.661415 54.68504l19.172249 93.46097" fill-rule="evenodd"></path><path fill="#000000" stroke="#000000" stroke-width="1.0" stroke-linecap="butt" d="m106.21562 148.47794l2.529976 4.1136017l0.70610046 -4.7774353z" fill-rule="evenodd"></path><path fill="#000000" fill-opacity="0.0" d="m42.582676 123.02887l6.9291344 24.598434" fill-rule="nonzero"></path><path stroke="#000000" stroke-width="1.0" stroke-linejoin="round" stroke-linecap="butt" d="m42.582676 123.02887l5.3023033 18.823181" fill-rule="evenodd"></path><path fill="#000000" stroke="#000000" stroke-width="1.0" stroke-linecap="butt" d="m46.295124 142.2999l2.8203087 3.9202576l0.35940933 -4.8159485z" fill-rule="evenodd"></path><path fill="#000000" fill-opacity="0.0" d="m118.44886 116.62212l-52.62992 37.41732" fill-rule="nonzero"></path><path stroke="#000000" stroke-width="1.0" stroke-linejoin="round" stroke-linecap="butt" d="m118.44886 116.622116l-47.739815 33.940704" fill-rule="evenodd"></path><path fill="#000000" stroke="#000000" stroke-width="1.0" stroke-linecap="butt" d="m69.75197 149.21663l-2.7415466 3.9757385l4.6557007 -1.2833557z" fill-rule="evenodd"></path><path fill="#000000" fill-opacity="0.0" d="m134.74016 123.02887l-9.41732 24.598434" fill-rule="nonzero"></path><path stroke="#000000" stroke-width="1.0" stroke-linejoin="round" stroke-linecap="butt" d="m134.74016 123.02887l-7.2721024 18.995026" fill-rule="evenodd"></path><path fill="#000000" stroke="#000000" stroke-width="1.0" stroke-linecap="butt" d="m125.9255 141.43335l-0.07997894 4.8286743l3.1650848 -3.6475677z" fill-rule="evenodd"></path><path fill="#000000" fill-opacity="0.0" d="m125.32021 191.3727l13.322838 28.472443" fill-rule="nonzero"></path><path stroke="#000000" stroke-width="1.0" stroke-linejoin="round" stroke-linecap="butt" d="m125.32021 191.3727l10.77993 23.037964" fill-rule="evenodd"></path><path fill="#000000" stroke="#000000" stroke-width="1.0" stroke-linecap="butt" d="m134.60408 215.11069l3.4193878 3.4103394l-0.4272766 -4.8103943z" fill-rule="evenodd"></path><path fill="#000000" fill-opacity="0.0" d="m65.81361 184.96596l56.53543 41.291336" fill-rule="nonzero"></path><path stroke="#000000" stroke-width="1.0" stroke-linejoin="round" stroke-linecap="butt" d="m65.8136 184.96596l51.690155 37.752533" fill-rule="evenodd"></path><path fill="#000000" stroke="#000000" stroke-width="1.0" stroke-linecap="butt" d="m116.52956 224.05234l4.6389313 1.3427277l-2.6905365 -4.010437z" fill-rule="evenodd"></path><path fill="#000000" fill-opacity="0.0" d="m49.52231 191.3727l-12.881889 28.472443" fill-rule="nonzero"></path><path stroke="#000000" stroke-width="1.0" stroke-linejoin="round" stroke-linecap="butt" d="m49.52231 191.3727l-10.408642 23.00592" fill-rule="evenodd"></path><path fill="#000000" stroke="#000000" stroke-width="1.0" stroke-linecap="butt" d="m37.608788 213.69775l-0.3657608 4.81546l3.375515 -3.4537506z" fill-rule="evenodd"></path></g></svg>

